<svg width="30" height="30" viewBox="0 0 30 30" fill="none" xmlns="http://www.w3.org/2000/svg">
<path d="M16.9216 15C16.9216 19.7048 13.1336 23.5189 8.46082 23.5189C3.78803 23.5189 0 19.7048 0 15C0 10.2952 3.78803 6.48111 8.46082 6.48111C13.1336 6.48111 16.9216 10.2952 16.9216 15Z" fill="white"/>
<path d="M26.2034 15C26.2034 19.4288 24.3093 23.019 21.973 23.019C19.6366 23.019 17.7426 19.4288 17.7426 15C17.7426 10.5712 19.6366 6.98099 21.973 6.98099C24.3094 6.98099 26.2034 10.5712 26.2034 15Z" fill="white"/>
<path d="M30 15C30 18.968 29.3338 22.1847 28.5121 22.1847C27.6903 22.1847 27.0243 18.968 27.0243 15C27.0243 11.032 27.6903 7.81528 28.5121 7.81528C29.3338 7.81528 30 11.032 30 15Z" fill="white"/>
</svg>
